<?xml version="1.0" encoding="utf-8"?>
<!-- Generator: Adobe Illustrator 24.3.0, SVG Export Plug-In . SVG Version: 6.00 Build 0)  -->
<svg version="1.1" id="Layer_1" xmlns:v="https://vecta.io/nano"
	 xmlns="http://www.w3.org/2000/svg" xmlns:xlink="http://www.w3.org/1999/xlink" x="0px" y="0px" viewBox="0 0 544.2 544.2"
	 style="enable-background:new 0 0 544.2 544.2;" xml:space="preserve">
<style type="text/css">
	.st0{fill:#803AAD;}
	.st1{fill:#FFFFFF;}
</style>
<path class="st0" d="M272.1,0C2.1,0,0,121.8,0,272.1s2.1,272.1,272.1,272.1s272.1-121.8,272.1-272.1S542.1,0,272.1,0z"/>
<g>
	<path class="st1" d="M272.1,136.5c44.2,0,49.4,0.2,66.8,1c16.1,0.7,24.9,3.4,30.7,5.7c7.7,3,13.2,6.6,19,12.4
		c5.8,5.8,9.4,11.3,12.4,19c2.3,5.8,5,14.6,5.7,30.7c0.8,17.4,1,22.7,1,66.8s-0.2,49.4-1,66.8c-0.7,16.1-3.4,24.9-5.7,30.7
		c-3,7.7-6.6,13.2-12.4,19c-5.8,5.8-11.3,9.4-19,12.4c-5.8,2.3-14.6,5-30.7,5.7c-17.4,0.8-22.7,1-66.8,1s-49.4-0.2-66.8-1
		c-16.1-0.7-24.9-3.4-30.7-5.7c-7.7-3-13.2-6.6-19-12.4c-5.8-5.8-9.4-11.3-12.4-19c-2.3-5.8-5-14.6-5.7-30.7
		c-0.8-17.4-1-22.7-1-66.8s0.2-49.4,1-66.8c0.7-16.1,3.4-24.9,5.7-30.7c3-7.7,6.6-13.2,12.4-19c5.8-5.8,11.3-9.4,19-12.4
		c5.8-2.3,14.6-5,30.7-5.7C222.7,136.7,227.9,136.5,272.1,136.5 M272.1,106.7c-44.9,0-50.5,0.2-68.2,1c-17.6,0.8-29.6,3.6-40.1,7.7
		c-10.9,4.2-20.1,9.9-29.3,19.1s-14.8,18.4-19.1,29.3c-4.1,10.5-6.9,22.5-7.7,40.1c-0.8,17.6-1,23.3-1,68.2s0.2,50.5,1,68.2
		c0.8,17.6,3.6,29.6,7.7,40.1c4.2,10.9,9.9,20.1,19.1,29.3c9.2,9.2,18.4,14.8,29.3,19.1c10.5,4.1,22.5,6.9,40.1,7.7
		c17.6,0.8,23.3,1,68.2,1s50.5-0.2,68.2-1c17.6-0.8,29.6-3.6,40.1-7.7c10.9-4.2,20.1-9.9,29.3-19.1c9.2-9.2,14.8-18.4,19.1-29.3
		c4.1-10.5,6.9-22.5,7.7-40.1c0.8-17.6,1-23.3,1-68.2s-0.2-50.5-1-68.2c-0.8-17.6-3.6-29.6-7.7-40.1c-4.2-10.9-9.9-20.1-19.1-29.3
		c-9.2-9.2-18.4-14.8-29.3-19.1c-10.5-4.1-22.5-6.9-40.1-7.7C322.6,106.9,317,106.7,272.1,106.7z M272.1,187.2
		c-46.9,0-84.9,38-84.9,84.9s38,84.9,84.9,84.9s84.9-38,84.9-84.9S319,187.2,272.1,187.2z M272.1,327.2c-30.4,0-55.1-24.7-55.1-55.1
		s24.7-55.1,55.1-55.1s55.1,24.7,55.1,55.1S302.5,327.2,272.1,327.2z M380.2,183.8c0,11-8.9,19.8-19.8,19.8s-19.8-8.9-19.8-19.8
		s8.9-19.8,19.8-19.8S380.2,172.9,380.2,183.8z"/>
</g>
</svg>
