<svg id="Layer_1" data-name="Layer 1" xmlns="http://www.w3.org/2000/svg" viewBox="0 0 330.71 330.71"><path d="M165.36,29.79c44.15,0,49.38.17,66.81,1,16.13.73,24.88,3.43,30.71,5.69a51.24,51.24,0,0,1,19,12.37,51.28,51.28,0,0,1,12.37,19c2.27,5.83,5,14.59,5.7,30.71.79,17.44,1,22.66,1,66.82s-.17,49.38-1,66.82c-.74,16.12-3.43,24.87-5.7,30.7a54.78,54.78,0,0,1-31.38,31.38c-5.83,2.27-14.58,5-30.71,5.7-17.43.79-22.66,1-66.81,1s-49.39-.17-66.82-1c-16.12-.74-24.88-3.43-30.71-5.7a51.28,51.28,0,0,1-19-12.37,51.12,51.12,0,0,1-12.37-19c-2.26-5.83-5-14.58-5.69-30.7-.8-17.44-1-22.67-1-66.82s.17-49.38,1-66.82c.73-16.12,3.43-24.88,5.69-30.71a51.28,51.28,0,0,1,12.37-19,51.4,51.4,0,0,1,19-12.37c5.83-2.26,14.59-5,30.71-5.69,17.43-.8,22.66-1,66.82-1m0-29.79c-44.91,0-50.54.19-68.18,1S67.56,4.59,57,8.68A81.24,81.24,0,0,0,27.75,27.75,81.24,81.24,0,0,0,8.68,57C4.59,67.56,1.8,79.58,1,97.18s-1,23.27-1,68.18.19,50.54,1,68.17,3.6,29.62,7.69,40.14A81.07,81.07,0,0,0,27.75,303,81.11,81.11,0,0,0,57,322c10.52,4.09,22.54,6.89,40.14,7.69s23.27,1,68.18,1,50.54-.19,68.17-1,29.62-3.6,40.14-7.69A84.52,84.52,0,0,0,322,273.67c4.09-10.52,6.89-22.54,7.69-40.14s1-23.26,1-68.17-.19-50.54-1-68.18S326.12,67.56,322,57A81.11,81.11,0,0,0,303,27.75,81.07,81.07,0,0,0,273.67,8.68C263.15,4.59,251.13,1.8,233.53,1S210.27,0,165.36,0Zm0,80.44a84.92,84.92,0,1,0,84.91,84.92A84.92,84.92,0,0,0,165.36,80.44Zm0,140a55.12,55.12,0,1,1,55.12-55.12A55.12,55.12,0,0,1,165.36,220.48ZM273.47,77.09a19.85,19.85,0,1,1-19.85-19.84A19.85,19.85,0,0,1,273.47,77.09Z"/></svg>